# xmcd
#
# Track frame offsets:
#	150
#	13655
#	31578
#	47812
#	67756
#	85246
#	101825
#	106478
#	114334
#	146860
#	155831
#	161996
#	182142
#	216984
#	236924
#	253377
#
# Disc length: 3581 seconds
#
# Revision: 1
# Processed by: cddbd v1.5.2PL0 Copyright (c) Steve Scherf et al.
# Submitted via: audiograbber 1.83.01
#
DISCID=ea0dfb10
DTITLE=animals and sonny boy williamson - Pontiac blues
DYEAR=1900
DGENRE=
TTITLE0=Sonny's slow walk
TTITLE1=Pontiac blues
TTITLE2=My babe
TTITLE3=I don't care no more
TTITLE4=Baby don'r you worry
TTITLE5=Night time is the right time
TTITLE6=I'm gonna put you down
TTITLE7=Fattining frogs for snakes
TTITLE8=Nobody but you
TTITLE9=bye-bye sonny bye-bye
TTITLE10=Coda
TTITLE11=Gotta find my baby
TTITLE12=Bo diddley
TTITLE13=Almost grown
TTITLE14=Dimples
TTITLE15=boom boom
EXTD=
EXTT0=
EXTT1=
EXTT2=
EXTT3=
EXTT4=
EXTT5=
EXTT6=
EXTT7=
EXTT8=
EXTT9=
EXTT10=
EXTT11=
EXTT12=
EXTT13=
EXTT14=
EXTT15=
PLAYORDER=
